<?xml version="1.0" encoding="utf-8"?>
<!-- Generator: Adobe Illustrator 26.0.0, SVG Export Plug-In . SVG Version: 6.00 Build 0)  -->
<svg version="1.1" id="Layer_1" xmlns="http://www.w3.org/2000/svg" xmlns:xlink="http://www.w3.org/1999/xlink" x="0px" y="0px"
	 viewBox="0 0 100 100" style="enable-background:new 0 0 100 100;" xml:space="preserve">
<style type="text/css">
	.st0{fill:url(#SVGID_1_);}
	.st1{fill:#0088CE;}
</style>
<path d="M85.45,19.27l-0.46,0.58l0.48-0.57C85.46,19.28,85.46,19.27,85.45,19.27z"/>
<g>
	<linearGradient id="SVGID_1_" gradientUnits="userSpaceOnUse" x1="5.004" y1="50.1802" x2="94.9902" y2="50.1802">
		<stop  offset="0.282" style="stop-color:#EC008C"/>
		<stop  offset="0.3282" style="stop-color:#DA098C"/>
		<stop  offset="0.4245" style="stop-color:#B31E8E"/>
		<stop  offset="0.5615" style="stop-color:#772B90"/>
		<stop  offset="0.5959" style="stop-color:#662D91"/>
	</linearGradient>
	<path class="st0" d="M83.13,89.41c-0.08,0-0.16-0.04-0.21-0.11l-3.96-5.85c-0.04-0.02-0.07-0.04-0.09-0.07l-0.91-1.35
		c-6.22,3.61-14.11,5.29-24.78,5.29H40.63c-0.14,0-0.25-0.11-0.25-0.25V21.32H29.21v62.23c0,0.09-0.04,0.17-0.12,0.21
		c-0.04,0.02-0.09,0.04-0.13,0.04c-0.04,0-0.08-0.01-0.11-0.03c-0.31-0.15-0.67-0.33-1.08-0.49v2.99c0,0.08-0.04,0.16-0.11,0.21
		c-0.04,0.03-0.09,0.04-0.14,0.04c-0.03,0-0.06-0.01-0.1-0.02c-1.73-0.72-1.46-1.93-1.23-2.9c0.16-0.69,0.24-1.15-0.06-1.5
		c-1.15,0.54-1.01,1.29-0.8,2.39c0.17,0.92,0.36,1.96-0.27,3.02c-0.04,0.06-0.1,0.11-0.17,0.12c-0.01,0-0.03,0-0.04,0
		c-0.06,0-0.12-0.02-0.16-0.06c-1.28-1.09-2.58-2.19-2.72-4.26c-0.98,0.62-0.79,1.71-0.59,2.87c0.16,0.96,0.33,1.95-0.34,2.51
		c-0.58,0.25-1.06,0.35-1.55,0.35c-0.07,0-0.14,0-0.22-0.01c-0.13-0.01-0.23-0.12-0.23-0.25v-9.74c0-0.02,0-0.05,0.01-0.07V21.32
		h-8.53c-0.09,0-0.17-0.05-0.22-0.13s-0.04-0.17,0-0.25c0.15-0.26,0.31-0.53,0.46-0.83H7.79c-0.09,0-0.17-0.04-0.21-0.12
		c-0.05-0.07-0.05-0.17-0.01-0.24c0.39-0.8,0.98-1.18,1.8-1.18c0.36,0,0.73,0.07,1.08,0.14c0.32,0.06,0.63,0.12,0.9,0.12
		c0.24,0,0.43-0.05,0.58-0.15c-0.31-0.51-0.7-0.73-1.32-0.73c-0.32,0-0.68,0.06-1.06,0.12c-0.44,0.07-0.89,0.14-1.37,0.14
		c-0.61,0-1.14-0.12-1.62-0.36c-0.07-0.04-0.12-0.1-0.13-0.18c-0.01-0.08,0.01-0.16,0.07-0.22c1.08-1.07,2.17-2.15,4.2-2.29
		c-0.32-0.38-0.8-0.55-1.48-0.55c-0.43,0-0.9,0.07-1.35,0.13C7.42,14.8,7,14.86,6.61,14.86c-0.56,0-0.96-0.13-1.23-0.41
		c-0.29-0.57-0.4-1.05-0.36-1.53c0.01-0.13,0.12-0.23,0.25-0.23h47.92c9.24,0,16.9,1.2,22.78,3.58l3.21-3.95
		c0.05-0.06,0.12-0.09,0.19-0.09c0.01,0,0.02,0,0.04,0c0.09,0.01,0.16,0.07,0.19,0.15c0.14,0.33,0.27,0.65,0.45,0.98l1.88-2.31
		c0.05-0.06,0.12-0.09,0.19-0.09c0.01,0,0.02,0,0.03,0c0.08,0.01,0.16,0.06,0.2,0.14c0.8,1.57-0.16,2.34-0.92,2.96
		c-0.47,0.38-0.89,0.72-0.9,1.19c0.15,0.03,0.3,0.05,0.43,0.05c0.82,0,1.18-0.64,1.63-1.45c0.45-0.81,0.97-1.73,2.08-2.18
		c0.03-0.01,0.06-0.02,0.09-0.02c0.04,0,0.09,0.01,0.12,0.03c0.07,0.04,0.11,0.1,0.12,0.18c0.24,1.6,0.49,3.2-0.69,4.89
		c0.04,0,0.07,0,0.11,0c1,0,1.55-0.96,2.09-1.89c0.5-0.87,0.98-1.7,1.82-1.74c0.66,0.16,1.12,0.4,1.52,0.77
		c0.1,0.09,0.11,0.24,0.03,0.34l-4.23,5.2l-0.46,0.58l-1.01,1.18c0.05,0.05,0.27,0.25,0.27,0.25c6.99,6.39,10.54,15.41,10.54,26.8
		c0,11.21-3.24,20.73-9.36,27.53l2.49,3.67c0.05,0.07,0.06,0.16,0.02,0.24c-0.04,0.08-0.11,0.13-0.2,0.14
		c-0.35,0.04-0.72,0.09-1.12,0.18l1.67,2.47c0.05,0.07,0.06,0.16,0.02,0.24c-0.03,0.08-0.1,0.13-0.18,0.15
		c-0.22,0.04-0.42,0.06-0.59,0.06l0,0c-1.3,0-1.7-0.99-2.01-1.79c-0.26-0.66-0.46-1.08-0.89-1.21c-0.59,1.06-0.04,1.63,0.72,2.4
		c0.65,0.67,1.39,1.42,1.48,2.64c0.01,0.08-0.02,0.15-0.08,0.2c-0.05,0.04-0.11,0.07-0.17,0.07c-0.01,0-0.02,0-0.03,0
		c-1.63-0.21-3.28-0.41-4.56-2.04c-0.41,1.03,0.35,1.83,1.15,2.68c0.7,0.74,1.35,1.43,1.14,2.26c-0.36,0.59-0.75,0.97-1.23,1.25
		C83.22,89.4,83.17,89.41,83.13,89.41z M53.18,79.11c7.97,0,14.54-1.65,19.54-4.89L57.2,51.07l-3.83,4.44l-2.92,3.37v20.23H53.18z
		 M79.8,67.17c3.11-4.82,4.68-11.08,4.68-18.61c0.06-8.14-2.36-14.64-7.18-19.32L64.36,44.4L79.8,67.17z M50.45,48.34
		c0.85-1.21,1.7-2.4,2.53-3.54c1.17-1.59,2.21-2.97,3.17-4.22l13.36-16.41c-4.59-1.92-10.08-2.9-16.34-2.9h-1.43
		c-0.04,0.02-0.08,0.04-0.12,0.04h-1.18V48.34z"/>
	<path class="st1" d="M82.12,11.2c1.23,2.42-2.11,2.6-1.84,4.24c0.25,0.07,0.47,0.1,0.66,0.1c1.88,0,1.67-2.79,3.81-3.65
		c0.25,1.64,0.52,3.29-0.89,5.03c0.2,0.05,0.38,0.08,0.55,0.08c2.1,0,2.38-3.55,3.93-3.64c0.57,0.15,0.99,0.39,1.34,0.71l-4.23,5.2
		l-0.46,0.58l-1.16,1.36c0.01,0.01,0.02,0.02,0.03,0.03c0.14,0.11,0.28,0.25,0.42,0.38c6.61,6.04,10.46,14.61,10.46,26.62
		c0,11.35-3.29,20.78-9.44,27.52l0.08,0.12c0-0.01,0.01-0.01,0.01-0.01l2.52,3.71c-0.48,0.06-0.97,0.13-1.5,0.26l1.88,2.77
		c-0.2,0.04-0.38,0.06-0.55,0.06c-2.09,0-1.46-2.84-3.02-3.03c-1.49,2.35,1.88,2.77,2.07,5.34c-1.68-0.21-3.37-0.41-4.63-2.27
		c-1.48,2.36,2.51,3.7,2.08,5.35c-0.33,0.52-0.7,0.86-1.11,1.1l-4.02-5.94c-0.01,0.01-0.02,0.01-0.03,0.02l-1.04-1.54
		c-6.24,3.68-14.24,5.37-24.86,5.37H40.63v-66H28.96v62.48c-0.44-0.22-0.91-0.44-1.44-0.63v3.35c-2.67-1.11,0-3.35-1.33-4.46
		c-2.66,1.11,0,3.35-1.34,5.58c-1.32-1.12-2.65-2.23-2.65-4.47c-2.65,1.12,0,4.47-1.33,5.59c-0.5,0.21-0.95,0.3-1.39,0.3
		c-0.07,0-0.13,0-0.2-0.01v-9.74h0.01V21.07h-8.78c0.22-0.37,0.44-0.76,0.63-1.21H7.79c0.41-0.83,0.97-1.04,1.58-1.04
		c0.66,0,1.37,0.26,1.98,0.26c0.34,0,0.65-0.08,0.9-0.34c-0.41-0.82-0.97-1.04-1.64-1.04c-0.72,0-1.56,0.26-2.43,0.26
		c-0.49,0-1-0.08-1.51-0.34c1.12-1.11,2.23-2.23,4.47-2.23c-0.41-0.82-1.13-1.04-1.93-1.04c-0.87,0-1.83,0.26-2.6,0.26
		c-0.43,0-0.8-0.08-1.06-0.34c-0.24-0.49-0.32-0.92-0.29-1.34h47.92c9,0,16.76,1.13,22.86,3.63l0.5-0.61l0.7-0.86l2.13-2.62
		c0.18,0.43,0.37,0.87,0.64,1.33L82.12,11.2 M50.2,48.68h0.32c0.9-1.28,1.79-2.53,2.66-3.73c1.08-1.47,2.13-2.87,3.17-4.21
		l13.57-16.66c-4.6-1.99-10.22-3.05-16.74-3.05h-1.55v0.04H50.2V48.68 M79.8,67.62c3.26-4.89,4.93-11.28,4.93-19.06
		c0.06-8.36-2.53-15.02-7.45-19.68l-13.23,15.5L79.8,67.62 M50.2,79.36h2.98c8.15,0,14.83-1.71,19.89-5.07L57.22,50.66l-4.04,4.69
		l-2.98,3.44V79.36 M82.12,10.7c-0.15,0-0.29,0.07-0.39,0.18l-1.63,2.01c-0.1-0.21-0.18-0.41-0.27-0.62
		c-0.07-0.16-0.22-0.28-0.39-0.3c-0.02,0-0.05-0.01-0.07-0.01c-0.15,0-0.29,0.07-0.39,0.18l-2.13,2.62l-0.7,0.86l-0.27,0.32
		c-5.89-2.34-13.53-3.53-22.71-3.53H5.26c-0.26,0-0.48,0.2-0.5,0.46c-0.04,0.53,0.07,1.05,0.34,1.6c0.02,0.05,0.06,0.09,0.1,0.13
		c0.32,0.32,0.79,0.48,1.41,0.48c0.41,0,0.84-0.06,1.29-0.13c0.44-0.06,0.9-0.13,1.31-0.13c0.33,0,0.6,0.04,0.83,0.13
		c-1.73,0.31-2.76,1.33-3.69,2.25c-0.11,0.11-0.18,0.29-0.16,0.45c0.03,0.16,0.11,0.31,0.25,0.38c0.52,0.26,1.09,0.39,1.73,0.39
		c0.14,0,0.27-0.01,0.41-0.02c-0.53,0.19-0.94,0.58-1.24,1.2c-0.08,0.15-0.07,0.34,0.02,0.49c0.09,0.15,0.25,0.24,0.42,0.24h2.55
		c-0.09,0.16-0.17,0.31-0.26,0.45c-0.09,0.15-0.09,0.35,0,0.5c0.09,0.16,0.25,0.25,0.43,0.25h8.28v57.39
		c-0.01,0.03-0.01,0.06-0.01,0.1v9.74c0,0.26,0.21,0.48,0.47,0.5c0.08,0,0.15,0.01,0.23,0.01c0.52,0,1.04-0.11,1.58-0.33
		c0.05-0.02,0.09-0.05,0.13-0.08c0.78-0.66,0.6-1.72,0.43-2.74c-0.18-1.06-0.28-1.82,0.15-2.34c0.31,1.88,1.58,2.96,2.72,3.93
		c0.09,0.08,0.23,0.13,0.35,0.13c0.02,0,0.05,0,0.07-0.01c0.14-0.02,0.29-0.1,0.36-0.22c0.69-1.14,0.47-2.28,0.3-3.2
		c-0.2-1.07-0.26-1.6,0.46-2.02c0.09,0.24,0.03,0.57-0.1,1.11c-0.22,0.95-0.55,2.38,1.38,3.18c0.06,0.03,0.13,0.04,0.19,0.04
		c0.1,0,0.19-0.03,0.28-0.08c0.14-0.09,0.22-0.25,0.22-0.42v-2.61c0.26,0.12,0.5,0.23,0.72,0.34c0.07,0.04,0.15,0.05,0.22,0.05
		c0.09,0,0.18-0.03,0.26-0.07c0.15-0.09,0.24-0.25,0.24-0.43V21.57h10.67v65.5c0,0.28,0.22,0.5,0.5,0.5h12.55
		c10.61,0,18.48-1.65,24.71-5.2l0.78,1.15c0.04,0.05,0.08,0.1,0.13,0.13l3.92,5.79c0.1,0.14,0.25,0.22,0.41,0.22
		c0.09,0,0.17-0.02,0.25-0.07c0.51-0.3,0.93-0.71,1.28-1.26c0.03-0.04,0.05-0.09,0.06-0.14c0.25-0.97-0.49-1.74-1.2-2.5
		c-0.72-0.76-1.21-1.34-1.19-1.97c1.3,1.37,2.92,1.57,4.36,1.75c0.02,0,0.04,0,0.06,0c0.13,0,0.27-0.05,0.36-0.14
		c0.11-0.1,0.18-0.25,0.17-0.4c-0.1-1.31-0.9-2.14-1.55-2.8c-0.74-0.75-1.1-1.17-0.78-1.89c0.2,0.15,0.34,0.46,0.54,0.97
		c0.33,0.82,0.77,1.94,2.25,1.94c0.2,0,0.41-0.02,0.64-0.06c0.17-0.03,0.3-0.14,0.37-0.3c0.06-0.16,0.05-0.33-0.05-0.47l-1.46-2.15
		c0.23-0.04,0.47-0.07,0.73-0.1c0.17-0.02,0.32-0.13,0.39-0.29c0.07-0.16,0.06-0.34-0.04-0.49l-2.38-3.51
		c6.08-6.84,9.3-16.36,9.3-27.55c0-11.47-3.57-20.55-10.62-26.99l-0.09-0.09l0.84-0.99l0.47-0.59l4.23-5.2
		c0.17-0.21,0.15-0.51-0.05-0.68c-0.43-0.39-0.94-0.66-1.55-0.82c-0.04-0.01-0.08-0.02-0.13-0.02c-0.01,0-0.02,0-0.03,0
		c-0.98,0.05-1.51,0.98-2.03,1.87c-0.51,0.88-0.92,1.52-1.49,1.71c0.91-1.61,0.67-3.17,0.46-4.57l-0.01-0.05
		c-0.02-0.15-0.11-0.28-0.25-0.36c-0.08-0.04-0.16-0.07-0.25-0.07c-0.06,0-0.13,0.01-0.19,0.04c-1.2,0.48-1.76,1.48-2.21,2.29
		c-0.48,0.87-0.77,1.32-1.41,1.32c-0.04,0-0.08,0-0.13-0.01c0.1-0.23,0.35-0.45,0.76-0.78c0.75-0.61,1.88-1.52,0.99-3.27
		c-0.08-0.15-0.22-0.25-0.39-0.27C82.16,10.7,82.14,10.7,82.12,10.7L82.12,10.7z M9.54,18.32c0.02,0,0.03-0.01,0.05-0.01
		c0.37-0.06,0.72-0.11,1.02-0.11c0.37,0,0.67,0.07,0.93,0.36c-0.06,0.01-0.12,0.01-0.19,0.01c-0.25,0-0.54-0.06-0.85-0.12
		C10.18,18.4,9.87,18.34,9.54,18.32L9.54,18.32z M51.83,21.53h1.35c6.08,0,11.44,0.93,15.93,2.75L55.96,40.42
		c-0.98,1.26-2.02,2.64-3.19,4.23c-0.66,0.91-1.35,1.87-2.08,2.9V21.57h0.93C51.7,21.57,51.77,21.56,51.83,21.53L51.83,21.53z
		 M64.68,44.41l12.64-14.81c4.65,4.61,6.97,10.98,6.92,18.95c0,7.32-1.49,13.42-4.44,18.16L64.68,44.41L64.68,44.41z M50.7,58.98
		l2.86-3.3l3.61-4.19l15.2,22.66c-4.93,3.13-11.38,4.71-19.19,4.71H50.7V58.98L50.7,58.98z"/>
</g>
<path d="M84.99,19.85l-1.13,1.39c-0.01-0.01-0.02-0.02-0.03-0.03L84.99,19.85z"/>
</svg>
